<mxfile host="app.diagrams.net" modified="2023-08-14T14:50:32.966Z" agent="Mozilla/5.0 (Windows NT 10.0; Win64; x64; rv:109.0) Gecko/20100101 Firefox/116.0" etag="xiEIULRrVygoDBm2SnjU" version="21.6.8" type="github">
  <diagram name="Page-1" id="74b105a0-9070-1c63-61bc-23e55f88626e">
    <mxGraphModel dx="1750" dy="930" grid="1" gridSize="10" guides="1" tooltips="1" connect="1" arrows="1" fold="1" page="1" pageScale="1.5" pageWidth="1169" pageHeight="826" background="none" math="0" shadow="0">
      <root>
        <mxCell id="0" style=";html=1;" />
        <mxCell id="1" style=";html=1;" parent="0" />
        <mxCell id="10b056a9c633e61c-30" value="Title" style="text;strokeColor=none;fillColor=none;html=1;fontSize=24;fontStyle=1;verticalAlign=middle;align=center;" parent="1" vertex="1">
          <mxGeometry x="80" y="40" width="1590" height="40" as="geometry" />
        </mxCell>
        <mxCell id="4Ak8q0aXKxf_eSX98An1-1" value="&lt;font style=&quot;font-size: 14px;&quot;&gt;Source code input&lt;/font&gt;" style="rounded=0;whiteSpace=wrap;html=1;" vertex="1" parent="1">
          <mxGeometry x="480" y="140" width="920" height="60" as="geometry" />
        </mxCell>
        <mxCell id="4Ak8q0aXKxf_eSX98An1-2" value="" style="endArrow=classic;html=1;rounded=0;" edge="1" parent="1">
          <mxGeometry width="50" height="50" relative="1" as="geometry">
            <mxPoint x="600" y="200" as="sourcePoint" />
            <mxPoint x="600" y="320" as="targetPoint" />
          </mxGeometry>
        </mxCell>
        <mxCell id="4Ak8q0aXKxf_eSX98An1-3" value="" style="endArrow=classic;html=1;rounded=0;exitX=0.471;exitY=1;exitDx=0;exitDy=0;exitPerimeter=0;" edge="1" parent="1">
          <mxGeometry width="50" height="50" relative="1" as="geometry">
            <mxPoint x="960.3200000000002" y="200" as="sourcePoint" />
            <mxPoint x="960" y="320" as="targetPoint" />
          </mxGeometry>
        </mxCell>
        <mxCell id="4Ak8q0aXKxf_eSX98An1-4" value="" style="endArrow=classic;html=1;rounded=0;" edge="1" parent="1">
          <mxGeometry width="50" height="50" relative="1" as="geometry">
            <mxPoint x="1280" y="200" as="sourcePoint" />
            <mxPoint x="1280" y="320" as="targetPoint" />
          </mxGeometry>
        </mxCell>
        <mxCell id="4Ak8q0aXKxf_eSX98An1-5" value="&lt;font style=&quot;font-size: 14px;&quot;&gt;CLI&lt;/font&gt;" style="rounded=0;whiteSpace=wrap;html=1;" vertex="1" parent="1">
          <mxGeometry x="520" y="320" width="160" height="60" as="geometry" />
        </mxCell>
      </root>
    </mxGraphModel>
  </diagram>
</mxfile>
